<svg width="366" height="81" viewBox="0 0 366 81" fill="none" xmlns="http://www.w3.org/2000/svg">
<path d="M10.3877 45.08C12.6189 45.08 14.4277 43.2712 14.4277 41.04C14.4277 38.8088 12.6189 37 10.3877 37C8.15647 37 6.3477 38.8088 6.3477 41.04C6.3477 43.2712 8.15647 45.08 10.3877 45.08Z" fill="#D64045"/>
<path d="M47.8037 64V17.536H57.5957V64H47.8037ZM77.4832 64.64C74.6245 64.64 72.0645 63.936 69.8032 62.528C67.5845 61.12 65.8139 59.2 64.4912 56.768C63.2112 54.336 62.5712 51.5627 62.5712 48.448C62.5712 45.3333 63.2112 42.56 64.4912 40.128C65.8139 37.696 67.5845 35.776 69.8032 34.368C72.0645 32.96 74.6245 32.256 77.4832 32.256C79.5739 32.256 81.4512 32.6613 83.1152 33.472C84.8219 34.2827 86.2085 35.4133 87.2752 36.864C88.3419 38.272 88.9392 39.8933 89.0672 41.728V55.168C88.9392 57.0027 88.3419 58.6453 87.2752 60.096C86.2512 61.504 84.8859 62.6133 83.1792 63.424C81.4725 64.2347 79.5739 64.64 77.4832 64.64ZM79.4672 55.808C81.5579 55.808 83.2432 55.1253 84.5232 53.76C85.8032 52.352 86.4432 50.5813 86.4432 48.448C86.4432 46.9973 86.1445 45.7173 85.5472 44.608C84.9925 43.4987 84.1819 42.6453 83.1152 42.048C82.0912 41.408 80.8965 41.088 79.5312 41.088C78.1659 41.088 76.9499 41.408 75.8832 42.048C74.8592 42.6453 74.0272 43.4987 73.3872 44.608C72.7899 45.7173 72.4912 46.9973 72.4912 48.448C72.4912 49.856 72.7899 51.1147 73.3872 52.224C73.9845 53.3333 74.8165 54.208 75.8832 54.848C76.9499 55.488 78.1445 55.808 79.4672 55.808ZM86.0592 64V55.616L87.5312 48.064L86.0592 40.512V32.896H95.6592V64H86.0592ZM112.154 64.128L99.3537 32.896H109.914L118.042 57.664H114.138L122.458 32.896H133.018L119.706 64.128H112.154ZM104.154 77.12L113.498 56.96L119.706 64.128L114.202 77.12H104.154ZM159.077 64.704C155.707 64.704 152.571 64.128 149.669 62.976C146.811 61.7813 144.293 60.1173 142.117 57.984C139.984 55.8507 138.32 53.376 137.125 50.56C135.931 47.7013 135.333 44.6293 135.333 41.344C135.333 38.0587 135.931 35.008 137.125 32.192C138.32 29.3333 139.984 26.8587 142.117 24.768C144.251 22.6773 146.747 21.056 149.605 19.904C152.507 18.7093 155.643 18.112 159.013 18.112C162.597 18.112 165.776 18.688 168.549 19.84C171.365 20.992 173.819 22.5707 175.909 24.576L169.189 31.36C167.995 30.08 166.544 29.0773 164.837 28.352C163.173 27.6267 161.232 27.264 159.013 27.264C157.051 27.264 155.237 27.6053 153.573 28.288C151.952 28.928 150.544 29.8667 149.349 31.104C148.197 32.3413 147.28 33.8347 146.597 35.584C145.957 37.3333 145.637 39.2533 145.637 41.344C145.637 43.4773 145.957 45.4187 146.597 47.168C147.28 48.9173 148.197 50.4107 149.349 51.648C150.544 52.8853 151.952 53.8453 153.573 54.528C155.237 55.2107 157.051 55.552 159.013 55.552C161.317 55.552 163.323 55.1893 165.029 54.464C166.736 53.7387 168.208 52.736 169.445 51.456L176.229 58.24C174.053 60.2453 171.557 61.824 168.741 62.976C165.968 64.128 162.747 64.704 159.077 64.704ZM195.092 64.704C191.892 64.704 188.991 64 186.388 62.592C183.828 61.1413 181.802 59.1787 180.308 56.704C178.815 54.2293 178.068 51.456 178.068 48.384C178.068 45.312 178.815 42.56 180.308 40.128C181.802 37.696 183.828 35.776 186.388 34.368C188.948 32.9173 191.85 32.192 195.092 32.192C198.335 32.192 201.236 32.896 203.796 34.304C206.356 35.712 208.383 37.6533 209.876 40.128C211.37 42.56 212.116 45.312 212.116 48.384C212.116 51.456 211.37 54.2293 209.876 56.704C208.383 59.1787 206.356 61.1413 203.796 62.592C201.236 64 198.335 64.704 195.092 64.704ZM195.092 55.808C196.5 55.808 197.738 55.5093 198.804 54.912C199.871 54.272 200.682 53.3973 201.236 52.288C201.834 51.136 202.132 49.8347 202.132 48.384C202.132 46.9333 201.834 45.6747 201.236 44.608C200.639 43.4987 199.807 42.6453 198.74 42.048C197.716 41.408 196.5 41.088 195.092 41.088C193.727 41.088 192.511 41.408 191.444 42.048C190.378 42.6453 189.546 43.4987 188.948 44.608C188.351 45.7173 188.052 46.9973 188.052 48.448C188.052 49.856 188.351 51.136 188.948 52.288C189.546 53.3973 190.378 54.272 191.444 54.912C192.511 55.5093 193.727 55.808 195.092 55.808ZM228.319 64.768C226.485 64.768 224.671 64.5333 222.879 64.064C221.13 63.5947 219.487 62.9333 217.951 62.08C216.458 61.184 215.178 60.16 214.111 59.008L219.679 53.376C220.703 54.4853 221.919 55.36 223.327 56C224.735 56.5973 226.271 56.896 227.935 56.896C229.087 56.896 229.962 56.7253 230.559 56.384C231.199 56.0427 231.519 55.5733 231.519 54.976C231.519 54.208 231.135 53.632 230.367 53.248C229.642 52.8213 228.703 52.4587 227.551 52.16C226.399 51.8187 225.183 51.456 223.903 51.072C222.623 50.688 221.407 50.1547 220.255 49.472C219.103 48.7893 218.165 47.8507 217.439 46.656C216.714 45.4187 216.351 43.8613 216.351 41.984C216.351 39.9787 216.863 38.2507 217.887 36.8C218.911 35.3067 220.362 34.1333 222.239 33.28C224.117 32.4267 226.314 32 228.831 32C231.477 32 233.909 32.4693 236.127 33.408C238.389 34.304 240.223 35.648 241.631 37.44L236.063 43.072C235.082 41.92 233.973 41.1093 232.735 40.64C231.541 40.1707 230.367 39.936 229.215 39.936C228.106 39.936 227.274 40.1067 226.719 40.448C226.165 40.7467 225.887 41.1947 225.887 41.792C225.887 42.432 226.25 42.944 226.975 43.328C227.701 43.712 228.639 44.0533 229.791 44.352C230.943 44.6507 232.159 45.0133 233.439 45.44C234.719 45.8667 235.935 46.4427 237.087 47.168C238.239 47.8933 239.178 48.8747 239.903 50.112C240.629 51.3067 240.991 52.8853 240.991 54.848C240.991 57.8773 239.839 60.288 237.535 62.08C235.274 63.872 232.202 64.768 228.319 64.768ZM246.304 64V32.896H256.096V64H246.304ZM266.208 64V45.824C266.208 44.2453 265.717 43.0293 264.736 42.176C263.797 41.28 262.624 40.832 261.216 40.832C260.234 40.832 259.36 41.0453 258.592 41.472C257.824 41.856 257.205 42.4107 256.736 43.136C256.309 43.8613 256.096 44.7573 256.096 45.824L252.32 44.16C252.32 41.6853 252.853 39.5733 253.92 37.824C254.986 36.032 256.437 34.6667 258.272 33.728C260.106 32.7467 262.176 32.256 264.48 32.256C266.656 32.256 268.597 32.7467 270.304 33.728C272.053 34.7093 273.44 36.0747 274.464 37.824C275.488 39.5733 276 41.664 276 44.096V64H266.208ZM286.112 64V45.824C286.112 44.2453 285.621 43.0293 284.64 42.176C283.701 41.28 282.528 40.832 281.12 40.832C280.138 40.832 279.264 41.0453 278.496 41.472C277.728 41.856 277.109 42.4107 276.64 43.136C276.213 43.8613 276 44.7573 276 45.824L270.368 45.056C270.453 42.4107 271.072 40.1493 272.224 38.272C273.418 36.352 274.976 34.88 276.896 33.856C278.858 32.7893 281.056 32.256 283.488 32.256C285.877 32.256 287.989 32.768 289.824 33.792C291.701 34.7733 293.173 36.2027 294.24 38.08C295.349 39.9147 295.904 42.1333 295.904 44.736V64H286.112ZM317.155 64.704C313.955 64.704 311.053 64 308.451 62.592C305.891 61.1413 303.864 59.1787 302.371 56.704C300.877 54.2293 300.131 51.456 300.131 48.384C300.131 45.312 300.877 42.56 302.371 40.128C303.864 37.696 305.891 35.776 308.451 34.368C311.011 32.9173 313.912 32.192 317.155 32.192C320.397 32.192 323.299 32.896 325.859 34.304C328.419 35.712 330.445 37.6533 331.939 40.128C333.432 42.56 334.179 45.312 334.179 48.384C334.179 51.456 333.432 54.2293 331.939 56.704C330.445 59.1787 328.419 61.1413 325.859 62.592C323.299 64 320.397 64.704 317.155 64.704ZM317.155 55.808C318.563 55.808 319.8 55.5093 320.867 54.912C321.933 54.272 322.744 53.3973 323.299 52.288C323.896 51.136 324.195 49.8347 324.195 48.384C324.195 46.9333 323.896 45.6747 323.299 44.608C322.701 43.4987 321.869 42.6453 320.803 42.048C319.779 41.408 318.563 41.088 317.155 41.088C315.789 41.088 314.573 41.408 313.507 42.048C312.44 42.6453 311.608 43.4987 311.011 44.608C310.413 45.7173 310.115 46.9973 310.115 48.448C310.115 49.856 310.413 51.136 311.011 52.288C311.608 53.3973 312.44 54.272 313.507 54.912C314.573 55.5093 315.789 55.808 317.155 55.808ZM350.382 64.768C348.547 64.768 346.734 64.5333 344.942 64.064C343.192 63.5947 341.55 62.9333 340.014 62.08C338.52 61.184 337.24 60.16 336.174 59.008L341.742 53.376C342.766 54.4853 343.982 55.36 345.39 56C346.798 56.5973 348.334 56.896 349.998 56.896C351.15 56.896 352.024 56.7253 352.622 56.384C353.262 56.0427 353.582 55.5733 353.582 54.976C353.582 54.208 353.198 53.632 352.43 53.248C351.704 52.8213 350.766 52.4587 349.614 52.16C348.462 51.8187 347.246 51.456 345.966 51.072C344.686 50.688 343.47 50.1547 342.318 49.472C341.166 48.7893 340.227 47.8507 339.502 46.656C338.776 45.4187 338.414 43.8613 338.414 41.984C338.414 39.9787 338.926 38.2507 339.95 36.8C340.974 35.3067 342.424 34.1333 344.302 33.28C346.179 32.4267 348.376 32 350.894 32C353.539 32 355.971 32.4693 358.19 33.408C360.451 34.304 362.286 35.648 363.694 37.44L358.126 43.072C357.144 41.92 356.035 41.1093 354.798 40.64C353.603 40.1707 352.43 39.936 351.278 39.936C350.168 39.936 349.336 40.1067 348.782 40.448C348.227 40.7467 347.95 41.1947 347.95 41.792C347.95 42.432 348.312 42.944 349.038 43.328C349.763 43.712 350.702 44.0533 351.854 44.352C353.006 44.6507 354.222 45.0133 355.502 45.44C356.782 45.8667 357.998 46.4427 359.15 47.168C360.302 47.8933 361.24 48.8747 361.966 50.112C362.691 51.3067 363.054 52.8853 363.054 54.848C363.054 57.8773 361.902 60.288 359.598 62.08C357.336 63.872 354.264 64.768 350.382 64.768Z" fill="black"/>
<path d="M18.5557 64.592C21.9264 64.592 25.0624 64.016 27.9637 62.864C30.8224 61.6693 33.3397 60.0053 35.5157 57.872C37.649 55.7387 39.313 53.264 40.5077 50.448C41.7024 47.5893 42.2997 44.5173 42.2997 41.232C42.2997 37.9467 41.7024 34.896 40.5077 32.08C39.313 29.2213 37.649 26.7467 35.5157 24.656C33.3824 22.5653 30.8864 20.944 28.0277 19.792C25.1264 18.5973 21.9904 18 18.6197 18C15.0357 18 11.857 18.576 9.08371 19.728C6.2677 20.88 3.81437 22.4587 1.72371 24.464C-3.1523 29.141 3.3477 35.472 8.4437 31.248C9.63837 29.968 11.089 28.9653 12.7957 28.24C14.4597 27.5147 16.401 27.152 18.6197 27.152C20.5824 27.152 22.3957 27.4933 24.0597 28.176C25.681 28.816 27.089 29.7547 28.2837 30.992C29.4357 32.2293 30.353 33.7227 31.0357 35.472C31.6757 37.2213 31.9957 39.1413 31.9957 41.232C31.9957 43.3653 31.6757 45.3067 31.0357 47.056C30.353 48.8053 29.4357 50.2987 28.2837 51.536C27.089 52.7733 25.681 53.7333 24.0597 54.416C22.3957 55.0987 20.5824 55.44 18.6197 55.44C16.3157 55.44 14.3104 55.0773 12.6037 54.352C10.897 53.6267 9.42504 52.624 8.18771 51.344C2.8477 48.888 -0.652298 53.388 1.40371 58.128C3.57971 60.1333 6.07571 61.712 8.8917 62.864C11.665 64.016 14.8864 64.592 18.5557 64.592Z" fill="#D64045"/>
</svg>
