<svg width="52" height="84" viewBox="0 0 52 84" fill="none" xmlns="http://www.w3.org/2000/svg">
<path d="M19.0375 16.6905C21.6075 13.0405 27.2675 8.94047 41.7075 15.1805C50.0075 19.7705 51.0775 12.9205 50.3575 9.89047C47.5875 -0.18953 24.8475 -2.02953 17.3875 1.96047C11.3375 4.73047 -1.29251 11.7105 0.107487 30.4305C4.46749 55.9005 24.5175 55.8005 26.4675 55.9005C28.4175 56.0005 32.3675 56.0105 34.7775 57.4505C37.4575 58.7205 41.7875 67.6405 30.2375 71.5205C22.7275 73.2905 14.9875 66.0905 6.97749 65.7605C0.697486 64.9805 -0.852514 70.8505 1.54749 73.1305C11.5175 83.5805 25.7775 83.4805 25.7775 83.4805C25.7775 83.4805 43.1975 85.5805 50.1675 70.3005C53.1575 63.7405 52.3575 52.7705 44.9575 48.4805C33.5875 42.3905 25.9475 46.7105 19.2575 39.6205C16.0675 36.6305 10.7675 29.7605 19.0375 16.6905Z" fill="#D64045"/>
<path d="M30.8975 37.4105C35.7355 37.4105 39.6575 33.4885 39.6575 28.6505C39.6575 23.8125 35.7355 19.8905 30.8975 19.8905C26.0595 19.8905 22.1375 23.8125 22.1375 28.6505C22.1375 33.4885 26.0595 37.4105 30.8975 37.4105Z" fill="#D64045"/>
<path d="M30.8975 67.4505C33.1287 67.4505 34.9375 65.6417 34.9375 63.4105C34.9375 61.1793 33.1287 59.3705 30.8975 59.3705C28.6663 59.3705 26.8575 61.1793 26.8575 63.4105C26.8575 65.6417 28.6663 67.4505 30.8975 67.4505Z" fill="#D64045"/>
</svg>
